<svg width="15" height="21" viewBox="0 0 15 21" fill="none" xmlns="http://www.w3.org/2000/svg">
<path d="M7.5 14.975C9.15 13.6417 10.396 12.3583 11.238 11.125C12.0793 9.89167 12.5 8.73333 12.5 7.65C12.5 6.71667 12.3293 5.92067 11.988 5.262C11.646 4.604 11.225 4.07067 10.725 3.662C10.225 3.254 9.68333 2.95833 9.1 2.775C8.51667 2.59167 7.98333 2.5 7.5 2.5C7.01667 2.5 6.48333 2.59167 5.9 2.775C5.31667 2.95833 4.775 3.254 4.275 3.662C3.775 4.07067 3.35433 4.604 3.013 5.262C2.671 5.92067 2.5 6.71667 2.5 7.65C2.5 8.73333 2.92067 9.89167 3.762 11.125C4.604 12.3583 5.85 13.6417 7.5 14.975ZM7.5 17.5C5.15 15.7667 3.39567 14.0833 2.237 12.45C1.079 10.8167 0.5 9.21667 0.5 7.65C0.5 6.46667 0.712667 5.429 1.138 4.537C1.56267 3.64567 2.10833 2.9 2.775 2.3C3.44167 1.7 4.19167 1.25 5.025 0.95C5.85833 0.65 6.68333 0.5 7.5 0.5C8.31667 0.5 9.14167 0.65 9.975 0.95C10.8083 1.25 11.5583 1.7 12.225 2.3C12.8917 2.9 13.4377 3.64567 13.863 4.537C14.2877 5.429 14.5 6.46667 14.5 7.65C14.5 9.21667 13.9207 10.8167 12.762 12.45C11.604 14.0833 9.85 15.7667 7.5 17.5ZM7.5 9.5C8.05 9.5 8.521 9.304 8.913 8.912C9.30433 8.52067 9.5 8.05 9.5 7.5C9.5 6.95 9.30433 6.479 8.913 6.087C8.521 5.69567 8.05 5.5 7.5 5.5C6.95 5.5 6.47933 5.69567 6.088 6.087C5.696 6.479 5.5 6.95 5.5 7.5C5.5 8.05 5.696 8.52067 6.088 8.912C6.47933 9.304 6.95 9.5 7.5 9.5ZM0.5 20.5V18.5H14.5V20.5H0.5Z" fill="black"/>
</svg>
