<svg width="22" height="19" viewBox="0 0 22 19" fill="none" xmlns="http://www.w3.org/2000/svg">
<path fill-rule="evenodd" clip-rule="evenodd" d="M14.0215 0.343523C14.5299 0.256441 15.0992 0.227365 15.635 0.318007C16.5918 0.47989 17.4757 0.924618 18.1744 1.59138C18.6311 1.60171 19.0799 1.51173 19.477 1.38347C19.8131 1.27492 20.097 1.14385 20.296 1.04021C20.3949 0.988681 20.4713 0.944723 20.521 0.914963C20.5458 0.900107 20.5638 0.888862 20.5745 0.882071L20.5841 0.87601C20.8809 0.678282 21.2761 0.716765 21.529 0.968271C21.7819 1.21984 21.8226 1.61476 21.6264 1.91266C21.4187 2.22795 21.1303 2.79002 20.8073 3.41978C20.7565 3.5188 20.7048 3.61949 20.6525 3.72116C20.4672 4.08113 20.2772 4.44494 20.1001 4.75707C19.9889 4.95306 19.87 5.15204 19.7501 5.32398V5.59775C19.7577 6.60338 19.6424 7.60377 19.4083 8.57698C19.261 9.18933 19.0667 9.79092 18.8265 10.3763C18.2041 11.893 17.2857 13.2704 16.1249 14.4282C14.9642 15.5859 13.5844 16.5008 12.0662 17.1193C10.5492 17.7373 8.9245 18.0471 7.28665 18.0306C4.91234 18.0327 2.58798 17.3486 0.593255 16.0607C0.299454 15.871 0.175755 15.5035 0.295092 15.1747C0.414428 14.846 0.745121 14.6434 1.09219 14.6863C1.39255 14.7235 1.69496 14.7416 1.99762 14.7407C3.08507 14.7376 4.15181 14.4973 5.12567 14.0447C4.81612 13.9038 4.52058 13.73 4.24443 13.5253C3.43271 12.9234 2.8288 12.0834 2.51673 11.1223C2.43564 10.8725 2.49108 10.5985 2.66289 10.3999C2.66597 10.3964 2.66908 10.3929 2.67221 10.3894C2.48869 10.2257 2.31696 10.0475 2.15886 9.8559C1.44754 8.9937 1.05587 7.91226 1.05009 6.79453L1.05007 6.79065L1.05008 6.74065C1.05008 6.47478 1.19083 6.22879 1.42003 6.09407C1.47813 6.05992 1.53972 6.03421 1.60307 6.01697C1.26473 5.34189 1.08879 4.59644 1.09007 3.84018C1.08968 2.98342 1.31347 2.14145 1.73923 1.39795C1.86214 1.18331 2.08297 1.04307 2.3295 1.0231C2.57603 1.00312 2.81656 1.10598 2.97242 1.29802C3.93498 2.48403 5.13626 3.45429 6.49825 4.14576C7.19839 4.50121 7.93294 4.77891 8.68874 4.97534C9.11247 5.08547 9.54288 5.17006 9.97765 5.22849C9.9585 4.50523 10.1013 3.78236 10.4011 3.11443C10.8407 2.1346 11.5932 1.32843 12.5404 0.822334C12.9416 0.608005 13.4741 0.437294 14.0215 0.343523ZM2.74335 7.89102C2.873 8.25591 3.06586 8.59823 3.31592 8.90133C3.80724 9.49687 4.48919 9.90443 5.24641 10.0551C5.58369 10.1222 5.83213 10.41 5.84916 10.7535C5.86618 11.097 5.64743 11.408 5.31843 11.5082C5.04594 11.5911 4.76676 11.6489 4.48441 11.681C4.67099 11.9215 4.89047 12.1369 5.13787 12.3204C5.69906 12.7365 6.376 12.9673 7.07451 12.9808C7.39143 12.9869 7.6703 13.1916 7.77112 13.4921C7.87195 13.7926 7.77296 14.124 7.52386 14.3201C6.47469 15.1456 5.26149 15.7213 3.97594 16.0151C5.04142 16.3564 6.15887 16.532 7.28916 16.5306L7.29786 16.5306C8.73792 16.5456 10.1665 16.2735 11.5002 15.7302C12.8339 15.1868 14.046 14.3832 15.0656 13.3661C16.0853 12.3491 16.892 11.1391 17.4388 9.80681C17.6498 9.29258 17.8205 8.76412 17.9499 8.22621C18.1557 7.37044 18.257 6.49078 18.2501 5.60651L18.2501 5.60065V5.07065C18.2501 4.88879 18.3161 4.71314 18.436 4.57636C18.5053 4.49732 18.6264 4.31476 18.7955 4.01686C18.9561 3.73374 19.1339 3.39383 19.3188 3.03465C19.33 3.01293 19.3412 2.99109 19.3525 2.96915C18.8729 3.0733 18.3293 3.12789 17.7595 3.06631C17.579 3.0468 17.4118 2.96252 17.2887 2.82908C16.7858 2.28374 16.1162 1.92073 15.3848 1.79699C15.0602 1.74209 14.6679 1.75465 14.2748 1.82199C13.8477 1.89515 13.476 2.02317 13.2473 2.14534C12.593 2.49491 12.0733 3.05175 11.7696 3.72854C11.4659 4.40533 11.3954 5.16377 11.5692 5.88493C11.6246 6.11484 11.5683 6.35742 11.4174 6.53945C11.2664 6.72148 11.0384 6.82164 10.8022 6.80969C9.95877 6.76703 9.12429 6.63838 8.31142 6.42711C7.45152 6.20362 6.61579 5.88767 5.81921 5.48326C4.64643 4.88785 3.57838 4.11075 2.65354 3.18306C2.61135 3.39868 2.58993 3.6187 2.59008 3.84015L2.59007 3.84207C2.58903 4.39279 2.72418 4.93522 2.98349 5.42107C3.2428 5.90692 3.61822 6.32111 4.07633 6.62676C4.35436 6.81226 4.47608 7.15934 4.37483 7.47786C4.27358 7.79638 3.97378 8.00946 3.63968 8.00037C3.33708 7.99214 3.03702 7.95533 2.74335 7.89102Z" fill="#121212"/>
</svg>
